# xmcd
#
# Track frame offsets:
#	150
#	12834
#	23968
#	34534
#	45606
#	60436
#	74509
#	89173
#	104745
#	111642
#	130519
#	142745
#	154704
#	172894
#	191621
#	204048
#
# Disc length: 2872 seconds
#
# Revision: 1
# Processed by: cddbd v1.5.1PL2 Copyright (c) Steve Scherf et al.
# Submitted via: audiograbber 1.83.01
#
DISCID=d40b3610
DTITLE=Verschiedene - The Country Club Collection Country Stars Live
DYEAR=2006
DGENRE=Country
TTITLE0=Johnny Cash - Ring of Fire
TTITLE1=Freddy Fender - Mathilda
TTITLE2=The Bellamy Brothers - Let your Love flow
TTITLE3=Charley Pride - Louisiana Man
TTITLE4=Tammy Wynette - Crying in the Rain
TTITLE5=Kathy Mattea - Heart of the Country
TTITLE6=Gene Watson - Love in the hot Afternoon
TTITLE7=George Jones - He stopped loving her today
TTITLE8=Carl Smith - Don't Tease me
TTITLE9=Bertie - Key Largo
TTITLE10=Dave and Sugar - The Door is always open
TTITLE11=Merle Haggard - The Moment i lost you
TTITLE12=Ed Bruce - Mama don't let your Babies grow up as Cowboy
TTITLE13=Tanya Tucker - Delta Dawn
TTITLE14=Freddy Fender - You'll lose a good Thing
TTITLE15=Webb Pierce - Slowly
EXTD=
EXTT0=
EXTT1=
EXTT2=
EXTT3=
EXTT4=
EXTT5=
EXTT6=
EXTT7=
EXTT8=
EXTT9=
EXTT10=
EXTT11=
EXTT12=
EXTT13=
EXTT14=
EXTT15=
PLAYORDER=
